<?xml version="1.0" encoding="UTF-8"?>
<svg id="Layer_2" data-name="Layer 2" xmlns="http://www.w3.org/2000/svg" viewBox="0 0 807.89 719.5">
  <defs>
    <style>
      .cls-1 {
        fill: #fff;
      }
    </style>
  </defs>
  <path class="cls-1" d="M474.44,503.75l-3.26,104.16-83.95,8.9.41-343.98,83.23-3.08,6.12,121.01,132.21-141.74,102.99,1.85-150.85,165.49,163.05,165.83-106,13.17-99.94-104.2c-3.59-3.74-15.85-10.43-20.49-12.72-6.23-3.07-23.27,16.94-23.53,25.3Z"/>
  <path class="cls-1" d="M199.5,170.49c-27.55,6.22-56.83-10.27-67.87-36.93,3.87-6.12,25.17-23.69,35.26-25.85L669.23,0c10.47,48.81-18.71,68.59-56.93,77.23l-412.8,93.26Z"/>
  <path class="cls-1" d="M243.81,629.32c-.03,4.5-17.87,12.76-20.61,9.26-3.66-4.68-13.17-19.41-13.18-26.49l-.24-378.87c-.01-22.8,16.96-41.54,36.04-45.5l351.94-73.07c69.59-14.45,135.29-33.62,210.13-17.41L246.22,218.17l-2.41,411.15Z"/>
  <path class="cls-1" d="M163.32,588.91c-12.3-.84-45.9-23.77-48.66-38.27l3-355.91c22.59-7.77,46.04,9.09,46.02,29l-.36,365.18Z"/>
  <path class="cls-1" d="M640.04,717.26l-554.37,2.24-3.68-15.37c-.91-3.8,19.05-12.07,23.95-12.05l465.94,1.56c77.87.26,144.72,6.28,215.47,11.85-48.58,4.73-95.19,11.56-147.31,11.77Z"/>
</svg>