<svg xmlns="http://www.w3.org/2000/svg" viewBox="0 0 512 512">
  <defs>
    <linearGradient id="bg" x1="0%" y1="0%" x2="100%" y2="100%">
      <stop offset="0%" style="stop-color:#818cf8"/>
      <stop offset="100%" style="stop-color:#6366f1"/>
    </linearGradient>
    <linearGradient id="shine" x1="0%" y1="0%" x2="100%" y2="100%">
      <stop offset="0%" style="stop-color:rgba(255,255,255,0.2)"/>
      <stop offset="50%" style="stop-color:rgba(255,255,255,0)"/>
    </linearGradient>
  </defs>

  <!-- Background -->
  <rect width="512" height="512" rx="108" fill="url(#bg)"/>

  <!-- Shine overlay -->
  <rect width="512" height="512" rx="108" fill="url(#shine)"/>

  <!-- K Letter -->
  <path d="M168 128 L168 384 L216 384 L216 280 L320 384 L384 384 L256 248 L372 128 L308 128 L216 232 L216 128 Z" fill="white"/>

  <!-- Subtle shadow on letter -->
  <path d="M168 128 L168 384 L216 384 L216 280 L320 384 L384 384 L256 248 L372 128 L308 128 L216 232 L216 128 Z" fill="rgba(0,0,0,0.1)" transform="translate(2,2)"/>
</svg>
