<?xml version="1.0" encoding="UTF-8"?>
<svg width="1200" height="1200" viewBox="0 0 512 512" xmlns="http://www.w3.org/2000/svg">
  
  <!-- Book cube base -->
  <g fill="white">
    
    <!-- Front face -->
    <rect x="80" y="140" width="300" height="260" rx="40" />
    
    <!-- Left spine -->
    <polygon points="80,140 40,110 40,370 80,400" />
    
    <!-- Top face -->
    <polygon points="80,140 40,110 340,110 380,140" />
    
    <!-- Binder rings -->
    <rect x="60" y="200" width="20" height="20" rx="6"/>
    <rect x="60" y="240" width="20" height="20" rx="6"/>
    <rect x="60" y="280" width="20" height="20" rx="6"/>

    <!-- K letter -->
    <path d="M170 200 L170 340 L210 340 L210 285 L270 340 L320 340 L245 270 L320 200 L270 200 L210 255 L210 200 Z"/>
  
  </g>
</svg>
